<svg version="1.1" viewBox="0.0 0.0 960.0 540.0" fill="none" stroke="none" stroke-linecap="square" stroke-miterlimit="10" xmlns:xlink="http://www.w3.org/1999/xlink" xmlns="http://www.w3.org/2000/svg"><clipPath id="p.0"><path d="m0 0l960.0 0l0 540.0l-960.0 0l0 -540.0z" clip-rule="nonzero"/></clipPath><g clip-path="url(#p.0)"><path fill="#ffffff" d="m0 0l960.0 0l0 540.0l-960.0 0z" fill-rule="evenodd"/><path fill="#000000" fill-opacity="0.0" d="m32.725285 78.1706l894.55115 0l0 215.49606l-894.55115 0z" fill-rule="evenodd"/><path fill="#000000" d="m366.59692 268.02667l-19.234375 -49.625l7.109375 0l12.90625 36.046875q1.5625 4.34375 2.609375 8.125q1.140625 -4.0625 2.671875 -8.125l13.40625 -36.046875l6.703125 0l-19.4375 49.625l-6.734375 0zm52.072052 -11.578125l6.28125 0.78125q-1.484375 5.515625 -5.515625 8.5625q-4.015625 3.046875 -10.28125 3.046875q-7.890625 0 -12.515625 -4.859375q-4.625 -4.859375 -4.625 -13.625q0 -9.078125 4.671875 -14.078125q4.671875 -5.015625 12.125 -5.015625q7.21875 0 11.78125 4.90625q4.5625 4.90625 4.5625 13.8125q0 0.546875 -0.03125 1.625l-26.8125 0q0.34375 5.921875 3.359375 9.078125q3.015625 3.140625 7.515625 3.140625q3.34375 0 5.71875 -1.75q2.375 -1.765625 3.765625 -5.625zm-20.015625 -9.84375l20.078125 0q-0.40625 -4.546875 -2.296875 -6.8125q-2.921875 -3.515625 -7.5625 -3.515625q-4.1875 0 -7.046875 2.8125q-2.859375 2.796875 -3.171875 7.515625zm33.88513 21.421875l0 -35.953125l5.484375 0l0 5.453125q2.09375 -3.828125 3.875 -5.046875q1.78125 -1.21875 3.90625 -1.21875q3.09375 0 6.265625 1.96875l-2.09375 5.65625q-2.234375 -1.328125 -4.46875 -1.328125q-2.0 0 -3.59375 1.203125q-1.59375 1.203125 -2.265625 3.328125q-1.015625 3.25 -1.015625 7.109375l0 18.828125l-6.09375 0zm22.883698 13.84375l-0.671875 -5.71875q2.0 0.546875 3.484375 0.546875q2.03125 0 3.25 -0.6875q1.21875 -0.671875 2.0 -1.890625q0.578125 -0.921875 1.859375 -4.53125q0.171875 -0.515625 0.546875 -1.5l-13.65625 -36.015625l6.578125 0l7.484375 20.828125q1.453125 3.953125 2.59375 8.328125q1.0625 -4.203125 2.515625 -8.203125l7.6875 -20.953125l6.09375 0l-13.6875 36.5625q-2.203125 5.921875 -3.421875 8.15625q-1.625 3.015625 -3.71875 4.421875q-2.09375 1.40625 -5.015625 1.40625q-1.75 0 -3.921875 -0.75zm51.753754 -24.578125l6.0312805 -0.9375q0.515625 3.609375 2.828125 5.546875q2.3125 1.921875 6.484375 1.921875q4.203125 0 6.234375 -1.703125q2.03125 -1.703125 2.03125 -4.015625q0 -2.0625 -1.796875 -3.25q-1.25 -0.8125 -6.234375 -2.0625q-6.703125 -1.6875 -9.296875 -2.921875q-2.5781555 -1.234375 -3.9219055 -3.421875q-1.34375 -2.1875 -1.34375 -4.828125q0 -2.40625 1.09375 -4.453125q1.109375 -2.046875 3.0156555 -3.40625q1.421875 -1.046875 3.875 -1.765625q2.453125 -0.734375 5.265625 -0.734375q4.21875 0 7.421875 1.21875q3.203125 1.21875 4.71875 3.3125q1.53125 2.078125 2.109375 5.5625l-5.96875 0.8125q-0.40625 -2.78125 -2.359375 -4.328125q-1.9375 -1.5625 -5.484375 -1.5625q-4.203125 0 -6.0 1.390625q-1.796875 1.375 -1.796875 3.25q0 1.171875 0.75 2.125q0.75 0.984375 2.34375 1.625q0.90625 0.34375 5.375 1.5625q6.46875 1.71875 9.015625 2.828125q2.5625 1.09375 4.015625 3.203125q1.453125 2.09375 1.453125 5.203125q0 3.046875 -1.78125 5.75q-1.765625 2.6875 -5.125 4.15625q-3.34375 1.46875 -7.578125 1.46875q-7.0 0 -10.6875305 -2.90625q-3.671875 -2.921875 -4.6875 -8.640625zm47.101593 10.734375l-13.6875 -35.953125l6.4375 0l7.71875 21.53125q1.25 3.484375 2.296875 7.25q0.8125 -2.84375 2.265625 -6.84375l8.0 -21.9375l6.265625 0l-13.609375 35.953125l-5.6875 0zm23.554688 2.984375l5.921875 0.875q0.375 2.734375 2.0625 4.0q2.265625 1.6875 6.203125 1.6875q4.234375 0 6.53125 -1.703125q2.296875 -1.6875 3.109375 -4.734375q0.484375 -1.859375 0.4375 -7.8125q-3.984375 4.703125 -9.953125 4.703125q-7.40625 0 -11.46875 -5.34375q-4.0625 -5.359375 -4.0625 -12.828125q0 -5.15625 1.859375 -9.5q1.859375 -4.359375 5.390625 -6.71875q3.546875 -2.375 8.328125 -2.375q6.359375 0 10.484375 5.140625l0 -4.328125l5.625 0l0 31.078125q0 8.390625 -1.71875 11.890625q-1.703125 3.515625 -5.40625 5.546875q-3.703125 2.03125 -9.125 2.03125q-6.4375 0 -10.40625 -2.90625q-3.953125 -2.890625 -3.8125 -8.703125zm5.046875 -21.609375q0 7.078125 2.796875 10.328125q2.8125 3.25 7.046875 3.25q4.203125 0 7.046875 -3.234375q2.84375 -3.234375 2.84375 -10.140625q0 -6.59375 -2.9375 -9.9375q-2.921875 -3.359375 -7.046875 -3.359375q-4.0625 0 -6.90625 3.296875q-2.84375 3.296875 -2.84375 9.796875z" fill-rule="nonzero"/><path fill="#000000" fill-opacity="0.0" d="m32.72441 297.54593l894.55115 0l0 83.212616l-894.55115 0z" fill-rule="evenodd"/><path fill="#595959" d="m329.21536 342.38593l0 -26.71875l5.328125 0l6.328125 18.921875q0.875 2.640625 1.265625 3.953125q0.46875 -1.453125 1.421875 -4.28125l6.40625 -18.59375l4.75 0l0 26.71875l-3.40625 0l0 -22.359375l-7.765625 22.359375l-3.1875 0l-7.734375 -22.75l0 22.75l-3.40625 0zm43.469604 0l0 -2.84375q-2.25 3.28125 -6.140625 3.28125q-1.703125 0 -3.203125 -0.65625q-1.484375 -0.65625 -2.203125 -1.640625q-0.71875 -1.0 -1.0 -2.4375q-0.203125 -0.96875 -0.203125 -3.0625l0 -12.0l3.28125 0l0 10.734375q0 2.578125 0.203125 3.46875q0.296875 1.296875 1.296875 2.03125q1.015625 0.734375 2.484375 0.734375q1.484375 0 2.765625 -0.75q1.296875 -0.765625 1.828125 -2.0625q0.546875 -1.296875 0.546875 -3.78125l0 -10.375l3.28125 0l0 19.359375l-2.9375 0zm20.713257 -7.09375l3.21875 0.421875q-0.515625 3.34375 -2.703125 5.234375q-2.171875 1.875 -5.34375 1.875q-3.984375 0 -6.40625 -2.59375q-2.40625 -2.59375 -2.40625 -7.453125q0 -3.125 1.03125 -5.46875q1.046875 -2.359375 3.171875 -3.53125q2.125 -1.1875 4.625 -1.1875q3.15625 0 5.15625 1.59375q2.0 1.59375 2.578125 4.53125l-3.203125 0.5q-0.453125 -1.953125 -1.609375 -2.9375q-1.15625 -0.984375 -2.796875 -0.984375q-2.484375 0 -4.03125 1.78125q-1.546875 1.765625 -1.546875 5.609375q0 3.90625 1.484375 5.671875q1.5 1.765625 3.90625 1.765625q1.9375 0 3.234375 -1.171875q1.296875 -1.1875 1.640625 -3.65625zm6.0234375 7.09375l0 -26.71875l3.28125 0l0 9.578125q2.296875 -2.65625 5.796875 -2.65625q2.15625 0 3.734375 0.859375q1.59375 0.84375 2.28125 2.34375q0.6875 1.484375 0.6875 4.328125l0 12.265625l-3.28125 0l0 -12.265625q0 -2.46875 -1.078125 -3.578125q-1.0625 -1.125 -3.015625 -1.125q-1.453125 0 -2.75 0.765625q-1.28125 0.75 -1.828125 2.046875q-0.546875 1.28125 -0.546875 3.5625l0 10.59375l-3.28125 0zm31.131104 7.421875l0 -26.78125l3.0 0l0 2.515625q1.046875 -1.46875 2.375 -2.203125q1.34375 -0.75 3.234375 -0.75q2.484375 0 4.375 1.28125q1.890625 1.265625 2.859375 3.59375q0.96875 2.328125 0.96875 5.09375q0 2.96875 -1.0625 5.359375q-1.0625 2.375 -3.109375 3.640625q-2.03125 1.265625 -4.265625 1.265625q-1.640625 0 -2.953125 -0.6875q-1.296875 -0.703125 -2.140625 -1.75l0 9.421875l-3.28125 0zm2.984375 -16.984375q0 3.734375 1.5 5.515625q1.515625 1.78125 3.671875 1.78125q2.1875 0 3.734375 -1.84375q1.5625 -1.84375 1.5625 -5.734375q0 -3.703125 -1.515625 -5.53125q-1.515625 -1.84375 -3.640625 -1.84375q-2.09375 0 -3.703125 1.953125q-1.609375 1.953125 -1.609375 5.703125zm17.744507 9.5625l0 -19.359375l2.953125 0l0 2.9375q1.125 -2.0625 2.078125 -2.71875q0.96875 -0.65625 2.109375 -0.65625q1.671875 0 3.375 1.0625l-1.125 3.046875q-1.203125 -0.71875 -2.40625 -0.71875q-1.078125 0 -1.9375 0.65625q-0.859375 0.640625 -1.21875 1.78125q-0.546875 1.75 -0.546875 3.828125l0 10.140625l-3.28125 0zm25.727417 -6.234375l3.375 0.421875q-0.796875 2.96875 -2.96875 4.609375q-2.15625 1.640625 -5.53125 1.640625q-4.25 0 -6.75 -2.609375q-2.484375 -2.625 -2.484375 -7.34375q0 -4.890625 2.515625 -7.578125q2.515625 -2.703125 6.53125 -2.703125q3.890625 0 6.34375 2.640625q2.453125 2.640625 2.453125 7.4375q0 0.296875 -0.015625 0.875l-14.4375 0q0.1875 3.1875 1.8125 4.890625q1.625 1.6875 4.046875 1.6875q1.796875 0 3.078125 -0.9375q1.28125 -0.953125 2.03125 -3.03125zm-10.78125 -5.296875l10.8125 0q-0.21875 -2.453125 -1.234375 -3.671875q-1.578125 -1.890625 -4.078125 -1.890625q-2.25 0 -3.796875 1.515625q-1.53125 1.5 -1.703125 4.046875zm16.963257 5.75l3.25 -0.5q0.28125 1.9375 1.515625 2.984375q1.25 1.03125 3.5 1.03125q2.265625 0 3.359375 -0.90625q1.09375 -0.921875 1.09375 -2.171875q0 -1.109375 -0.96875 -1.75q-0.671875 -0.4375 -3.359375 -1.109375q-3.609375 -0.90625 -5.0 -1.5625q-1.390625 -0.671875 -2.125 -1.84375q-0.71875 -1.1875 -0.71875 -2.609375q0 -1.296875 0.59375 -2.390625q0.59375 -1.109375 1.625 -1.84375q0.765625 -0.5625 2.078125 -0.953125q1.328125 -0.390625 2.84375 -0.390625q2.265625 0 3.984375 0.65625q1.734375 0.65625 2.546875 1.78125q0.828125 1.125 1.140625 3.0l-3.21875 0.4375q-0.21875 -1.5 -1.265625 -2.328125q-1.046875 -0.84375 -2.953125 -0.84375q-2.265625 0 -3.234375 0.75q-0.96875 0.734375 -0.96875 1.75q0 0.625 0.40625 1.140625q0.40625 0.53125 1.265625 0.875q0.484375 0.1875 2.890625 0.84375q3.484375 0.921875 4.859375 1.515625q1.375 0.59375 2.15625 1.734375q0.78125 1.125 0.78125 2.796875q0 1.640625 -0.953125 3.09375q-0.953125 1.453125 -2.765625 2.25q-1.796875 0.78125 -4.078125 0.78125q-3.765625 0 -5.75 -1.5625q-1.984375 -1.578125 -2.53125 -4.65625zm33.242218 -0.453125l3.375 0.421875q-0.796875 2.96875 -2.96875 4.609375q-2.15625 1.640625 -5.5312805 1.640625q-4.25 0 -6.75 -2.609375q-2.484375 -2.625 -2.484375 -7.34375q0 -4.890625 2.515625 -7.578125q2.515625 -2.703125 6.53125 -2.703125q3.8906555 0 6.3437805 2.640625q2.453125 2.640625 2.453125 7.4375q0 0.296875 -0.015625 0.875l-14.4375305 0q0.1875 3.1875 1.8125 4.890625q1.625 1.6875 4.046875 1.6875q1.7969055 0 3.0781555 -0.9375q1.28125 -0.953125 2.03125 -3.03125zm-10.7812805 -5.296875l10.8125305 0q-0.21875 -2.453125 -1.234375 -3.671875q-1.578125 -1.890625 -4.0781555 -1.890625q-2.25 0 -3.796875 1.515625q-1.53125 1.5 -1.703125 4.046875zm18.275787 11.53125l0 -19.359375l2.953125 0l0 2.75q2.140625 -3.1875 6.171875 -3.1875q1.75 0 3.21875 0.640625q1.46875 0.625 2.1875 1.640625q0.734375 1.015625 1.03125 2.421875q0.171875 0.90625 0.171875 3.1875l0 11.90625l-3.28125 0l0 -11.78125q0 -2.0 -0.390625 -2.984375q-0.375 -1.0 -1.359375 -1.59375q-0.96875 -0.59375 -2.28125 -0.59375q-2.09375 0 -3.625 1.328125q-1.515625 1.328125 -1.515625 5.046875l0 10.578125l-3.28125 0zm27.932007 -2.9375l0.46875 2.90625q-1.375 0.28125 -2.46875 0.28125q-1.796875 0 -2.78125 -0.5625q-0.984375 -0.5625 -1.390625 -1.484375q-0.390625 -0.921875 -0.390625 -3.875l0 -11.140625l-2.40625 0l0 -2.546875l2.40625 0l0 -4.796875l3.265625 -1.96875l0 6.765625l3.296875 0l0 2.546875l-3.296875 0l0 11.328125q0 1.40625 0.171875 1.8125q0.171875 0.390625 0.5625 0.625q0.390625 0.234375 1.125 0.234375q0.546875 0 1.4375 -0.125zm15.839722 0.546875q-1.828125 1.546875 -3.515625 2.1875q-1.6875 0.640625 -3.609375 0.640625q-3.1875 0 -4.90625 -1.546875q-1.71875 -1.5625 -1.71875 -4.0q0 -1.421875 0.640625 -2.59375q0.65625 -1.171875 1.703125 -1.875q1.046875 -0.71875 2.359375 -1.078125q0.96875 -0.265625 2.921875 -0.5q3.96875 -0.46875 5.84375 -1.125q0.03125 -0.671875 0.03125 -0.859375q0 -2.0 -0.9375 -2.828125q-1.25 -1.109375 -3.734375 -1.109375q-2.3125 0 -3.421875 0.8125q-1.09375 0.8125 -1.625 2.875l-3.21875 -0.4375q0.4375 -2.0625 1.4375 -3.328125q1.015625 -1.265625 2.90625 -1.953125q1.890625 -0.6875 4.390625 -0.6875q2.484375 0 4.03125 0.59375q1.546875 0.578125 2.28125 1.46875q0.734375 0.875 1.015625 2.21875q0.171875 0.84375 0.171875 3.03125l0 4.375q0 4.578125 0.203125 5.796875q0.21875 1.203125 0.828125 2.3125l-3.421875 0q-0.515625 -1.015625 -0.65625 -2.390625zm-0.28125 -7.328125q-1.78125 0.734375 -5.359375 1.25q-2.015625 0.28125 -2.859375 0.65625q-0.828125 0.359375 -1.296875 1.0625q-0.453125 0.703125 -0.453125 1.5625q0 1.3125 0.984375 2.1875q1.0 0.875 2.921875 0.875q1.890625 0 3.359375 -0.828125q1.484375 -0.84375 2.1875 -2.28125q0.515625 -1.109375 0.515625 -3.28125l0 -1.203125zm15.572632 6.78125l0.46875 2.90625q-1.375 0.28125 -2.46875 0.28125q-1.796875 0 -2.78125 -0.5625q-0.984375 -0.5625 -1.390625 -1.484375q-0.390625 -0.921875 -0.390625 -3.875l0 -11.140625l-2.40625 0l0 -2.546875l2.40625 0l0 -4.796875l3.265625 -1.96875l0 6.765625l3.296875 0l0 2.546875l-3.296875 0l0 11.328125q0 1.40625 0.171875 1.8125q0.171875 0.390625 0.5625 0.625q0.390625 0.234375 1.125 0.234375q0.546875 0 1.4375 -0.125zm3.2303467 -20.015625l0 -3.765625l3.28125 0l0 3.765625l-3.28125 0zm0 22.953125l0 -19.359375l3.28125 0l0 19.359375l-3.28125 0zm7.043091 -9.671875q0 -5.390625 3.0 -7.96875q2.484375 -2.15625 6.078125 -2.15625q4.0 0 6.53125 2.625q2.53125 2.609375 2.53125 7.21875q0 3.734375 -1.125 5.875q-1.109375 2.140625 -3.265625 3.328125q-2.140625 1.1875 -4.671875 1.1875q-4.0625 0 -6.578125 -2.609375q-2.5 -2.609375 -2.5 -7.5zm3.375 0q0 3.71875 1.625 5.5625q1.625 1.84375 4.078125 1.84375q2.453125 0 4.0625 -1.859375q1.625 -1.859375 1.625 -5.65625q0 -3.59375 -1.640625 -5.4375q-1.625 -1.859375 -4.046875 -1.859375q-2.453125 0 -4.078125 1.84375q-1.625 1.84375 -1.625 5.5625zm18.603882 9.671875l0 -19.359375l2.953125 0l0 2.75q2.140625 -3.1875 6.171875 -3.1875q1.75 0 3.21875 0.640625q1.46875 0.625 2.1875 1.640625q0.734375 1.015625 1.03125 2.421875q0.171875 0.90625 0.171875 3.1875l0 11.90625l-3.28125 0l0 -11.78125q0 -2.0 -0.390625 -2.984375q-0.375 -1.0 -1.359375 -1.59375q-0.96875 -0.59375 -2.28125 -0.59375q-2.09375 0 -3.625 1.328125q-1.515625 1.328125 -1.515625 5.046875l0 10.578125l-3.28125 0z" fill-rule="nonzero"/></g></svg>